<?xml version="1.0" encoding="utf-8"?>
<!-- Generator: Adobe Illustrator 16.0.0, SVG Export Plug-In . SVG Version: 6.00 Build 0)  -->
<!DOCTYPE svg PUBLIC "-//W3C//DTD SVG 1.1//EN" "http://www.w3.org/Graphics/SVG/1.1/DTD/svg11.dtd">
<svg version="1.1" id="Layer_1" xmlns="http://www.w3.org/2000/svg" xmlns:xlink="http://www.w3.org/1999/xlink" x="0px" y="0px"
	 width="230px" height="85px" viewBox="881.5 911.5 230 85" enable-background="new 881.5 911.5 230 85" xml:space="preserve">
<path fill="#FFFFFF" d="M901.82,926.742l-10.382,5.771c-0.12,0.066-0.223,0.075-0.309,0.023c-0.086-0.053-0.129-0.146-0.129-0.282
	v-11.508c0-0.136,0.043-0.229,0.129-0.282c0.086-0.051,0.189-0.043,0.309,0.023l10.382,5.771c0.119,0.067,0.18,0.148,0.18,0.242
	S901.939,926.675,901.82,926.742z"/>
<path fill="#FFFFFF" d="M902,951.459v10.082c0,0.125-0.045,0.232-0.137,0.322c-0.09,0.092-0.197,0.137-0.322,0.137h-3.666
	c-0.124,0-0.231-0.045-0.322-0.137c-0.091-0.09-0.137-0.197-0.137-0.322v-10.082c0-0.125,0.046-0.232,0.137-0.322
	c0.091-0.092,0.198-0.137,0.322-0.137h3.666c0.125,0,0.232,0.045,0.322,0.137C901.955,951.227,902,951.334,902,951.459z
	 M895.584,951.459v10.082c0,0.125-0.046,0.232-0.137,0.322c-0.091,0.092-0.198,0.137-0.322,0.137h-3.666
	c-0.125,0-0.232-0.045-0.322-0.137c-0.092-0.09-0.137-0.197-0.137-0.322v-10.082c0-0.125,0.045-0.232,0.137-0.322
	c0.09-0.092,0.197-0.137,0.322-0.137h3.666c0.124,0,0.231,0.045,0.322,0.137C895.538,951.227,895.584,951.334,895.584,951.459z"/>
<path fill="#FFFFFF" d="M925.779,950.379v12.242c0,0.195-0.07,0.363-0.213,0.506s-0.312,0.214-0.506,0.214
	c-0.195,0-0.364-0.071-0.507-0.214l-3.747-3.746h-2.947c-0.195,0-0.364-0.072-0.507-0.215s-0.214-0.311-0.214-0.506v-4.32
	c0-0.195,0.071-0.363,0.214-0.506s0.312-0.215,0.507-0.215h2.947l3.747-3.746c0.143-0.143,0.312-0.214,0.507-0.214
	c0.194,0,0.363,0.071,0.506,0.214S925.779,950.184,925.779,950.379z M930.101,956.5c0,0.57-0.159,1.101-0.478,1.592
	c-0.319,0.492-0.741,0.842-1.267,1.053c-0.075,0.037-0.169,0.056-0.281,0.056c-0.194,0-0.364-0.069-0.507-0.208
	c-0.142-0.139-0.213-0.31-0.213-0.512c0-0.158,0.045-0.291,0.135-0.399s0.199-0.202,0.326-0.281
	c0.128-0.079,0.256-0.165,0.383-0.259s0.236-0.227,0.326-0.399s0.135-0.387,0.135-0.642s-0.045-0.469-0.135-0.641
	c-0.09-0.174-0.199-0.307-0.326-0.4s-0.255-0.18-0.383-0.259c-0.127-0.079-0.236-0.173-0.326-0.281s-0.135-0.241-0.135-0.399
	c0-0.202,0.071-0.373,0.213-0.512c0.143-0.139,0.312-0.208,0.507-0.208c0.112,0,0.206,0.019,0.281,0.056
	c0.525,0.203,0.947,0.552,1.267,1.047C929.941,955.397,930.101,955.93,930.101,956.5z M932.98,956.5
	c0,1.147-0.318,2.207-0.955,3.179c-0.639,0.972-1.482,1.679-2.532,2.121c-0.098,0.037-0.191,0.056-0.281,0.056
	c-0.202,0-0.375-0.07-0.518-0.213s-0.214-0.312-0.214-0.507c0-0.292,0.146-0.514,0.439-0.664c0.42-0.218,0.705-0.382,0.854-0.495
	c0.556-0.404,0.988-0.913,1.3-1.524c0.311-0.611,0.467-1.263,0.467-1.952s-0.156-1.341-0.467-1.952
	c-0.312-0.611-0.744-1.12-1.3-1.524c-0.149-0.113-0.435-0.277-0.854-0.495c-0.293-0.15-0.439-0.372-0.439-0.664
	c0-0.194,0.071-0.364,0.214-0.507s0.312-0.213,0.507-0.213c0.097,0,0.194,0.019,0.292,0.056c1.05,0.442,1.894,1.149,2.532,2.121
	C932.662,954.293,932.98,955.353,932.98,956.5z M935.861,956.5c0,1.725-0.477,3.311-1.429,4.754s-2.22,2.508-3.804,3.189
	c-0.097,0.038-0.194,0.057-0.292,0.057c-0.194,0-0.364-0.071-0.507-0.214s-0.213-0.312-0.213-0.507c0-0.27,0.146-0.49,0.438-0.663
	c0.053-0.03,0.137-0.069,0.253-0.118c0.117-0.049,0.201-0.088,0.254-0.118c0.345-0.188,0.652-0.379,0.922-0.574
	c0.923-0.683,1.643-1.534,2.16-2.554c0.518-1.021,0.777-2.104,0.777-3.252s-0.26-2.231-0.777-3.252
	c-0.518-1.02-1.237-1.871-2.16-2.554c-0.27-0.195-0.577-0.387-0.922-0.574c-0.053-0.03-0.137-0.069-0.254-0.118
	c-0.116-0.049-0.2-0.088-0.253-0.118c-0.292-0.173-0.438-0.394-0.438-0.663c0-0.195,0.07-0.364,0.213-0.507s0.312-0.214,0.507-0.214
	c0.098,0,0.195,0.019,0.292,0.057c1.584,0.682,2.852,1.746,3.804,3.189S935.861,954.775,935.861,956.5z"/>
<path fill="#FFFFFF" d="M925.779,920.379v12.242c0,0.195-0.07,0.363-0.213,0.506s-0.312,0.214-0.506,0.214
	c-0.195,0-0.364-0.071-0.507-0.214l-3.747-3.746h-2.947c-0.195,0-0.364-0.072-0.507-0.215s-0.214-0.311-0.214-0.506v-4.32
	c0-0.195,0.071-0.363,0.214-0.506s0.312-0.215,0.507-0.215h2.947l3.747-3.746c0.143-0.143,0.312-0.214,0.507-0.214
	c0.194,0,0.363,0.071,0.506,0.214S925.779,920.184,925.779,920.379z"/>
<path fill="#FFFFFF" d="M984,911.5c7.711,0,14.821,1.9,21.333,5.699c6.512,3.801,11.667,8.956,15.468,15.468
	c3.799,6.512,5.699,13.622,5.699,21.333s-1.9,14.821-5.699,21.333c-3.801,6.512-8.956,11.667-15.468,15.468
	C998.821,994.6,991.711,996.5,984,996.5s-14.821-1.9-21.333-5.699C956.155,987,951,981.845,947.2,975.333
	c-3.801-6.512-5.7-13.622-5.7-21.333s1.899-14.821,5.7-21.333c3.8-6.512,8.955-11.667,15.467-15.468
	C969.179,913.4,976.289,911.5,984,911.5z M1005.25,957.043c1.181-0.664,1.771-1.678,1.771-3.043s-0.591-2.379-1.771-3.043
	l-30.104-17.709c-1.145-0.701-2.324-0.719-3.543-0.055c-1.18,0.7-1.771,1.733-1.771,3.098v35.418c0,1.364,0.591,2.397,1.771,3.098
	c0.591,0.296,1.182,0.443,1.771,0.443c0.627,0,1.217-0.166,1.771-0.498L1005.25,957.043z"/>
<path fill="#FFFFFF" d="M1110.117,962.854c0,0.186-0.02,0.314-0.057,0.389c-2.36,9.887-7.305,17.901-14.83,24.044
	s-16.344,9.214-26.451,9.214c-5.387,0-10.598-1.015-15.634-3.043c-5.036-2.029-9.527-4.926-13.476-8.689l-7.139,7.139
	c-0.7,0.701-1.53,1.053-2.49,1.053c-0.959,0-1.789-0.352-2.49-1.053c-0.7-0.7-1.051-1.53-1.051-2.49v-24.791
	c0-0.959,0.351-1.789,1.051-2.49c0.701-0.701,1.531-1.051,2.49-1.051h24.793c0.959,0,1.789,0.35,2.49,1.051
	c0.7,0.701,1.051,1.531,1.051,2.49s-0.351,1.789-1.051,2.49l-7.582,7.582c2.619,2.434,5.59,4.316,8.91,5.645
	s6.77,1.992,10.348,1.992c4.943,0,9.555-1.199,13.834-3.598c4.28-2.398,7.711-5.699,10.293-9.906
	c0.406-0.627,1.385-2.785,2.934-6.475c0.295-0.848,0.849-1.271,1.66-1.271h10.625c0.479,0,0.895,0.175,1.245,0.525
	C1109.941,961.959,1110.117,962.375,1110.117,962.854z M1111.5,918.584v24.791c0,0.959-0.351,1.789-1.051,2.49
	c-0.701,0.701-1.531,1.051-2.49,1.051h-24.793c-0.959,0-1.789-0.35-2.49-1.051c-0.7-0.701-1.051-1.531-1.051-2.49
	s0.351-1.789,1.051-2.49l7.637-7.637c-5.459-5.055-11.896-7.582-19.312-7.582c-4.943,0-9.555,1.199-13.834,3.598
	c-4.28,2.398-7.711,5.699-10.293,9.906c-0.406,0.627-1.385,2.785-2.934,6.475c-0.295,0.848-0.849,1.271-1.66,1.271h-11.012
	c-0.48,0-0.896-0.175-1.246-0.525c-0.35-0.35-0.525-0.766-0.525-1.244v-0.389c2.398-9.887,7.379-17.901,14.941-24.044
	s16.417-9.214,26.562-9.214c5.387,0,10.625,1.023,15.717,3.071c5.09,2.048,9.609,4.935,13.557,8.661l7.195-7.139
	c0.7-0.701,1.53-1.053,2.49-1.053c0.959,0,1.789,0.352,2.49,1.053C1111.149,916.794,1111.5,917.624,1111.5,918.584z"/>
</svg>
