<svg xmlns="http://www.w3.org/2000/svg" width="125" height="167.93" viewBox="0.5 30.5 125 167.93" enable-background="new 0.5 30.5 125 167.93">
  <g id="flame-4">
    <path fill="#EC680D" d="M70.423 68.116c1.704 27.289 3.51 84.569 5.217 111.961h-27.689c1.704-27.289 3.512-84.566 5.216-111.961 5.82.403 11.537.403 17.256 0" />
    <path fill="#FDDF89" d="M66.811 76.244c1.104 22.771 2.207 76.946 3.311 99.82-5.518.501-11.033.501-16.552 0 1.104-22.771 2.207-76.946 3.311-99.82 3.31.299 6.618.299 9.93 0" />
  </g>
  <path id="flame-3" fill="#F0800B" d="M61.894 100.486c3.21.702 9.432 5.322 10.435 11.645 1.405 6.622-2.408 14.943-10.131 28.388-.203.304-.304.604-.5 1.006-.201-.305-.302-.611-.503-1.006-7.524-13.243-11.338-21.572-9.832-28.191 1.103-6.323 7.323-11.037 10.531-11.842" />
  <g id="cloud-2">
    <path fill="#56AEB7" d="M100.017 131.925c11.534-1.104 21.869 7.323 23.076 18.955.495 4.817-.702 9.335-3.115 13.146 3.914-4.213 6.023-10.03 5.42-16.247-1.104-11.542-11.438-20.071-23.075-18.968-6.817.701-12.542 4.518-15.848 9.93 3.409-3.711 8.122-6.218 13.542-6.816zm18.357 59.784c-7.821 5.822-18.759 4.221-24.581-3.607-2.403-3.208-3.508-7.023-3.402-10.736-.909 4.718 0 9.736 3.103 13.942 5.817 7.828 16.761 9.437 24.576 3.614 4.518-3.406 7.024-8.625 7.024-13.844-.8 4.115-3.007 7.931-6.72 10.631z" />
    <path fill="#fff" d="M119.575 164.526c.104-.196.206-.405.402-.501 2.413-3.811 3.518-8.328 3.115-13.146-1.104-11.528-11.437-20.059-23.076-18.955-5.42.501-10.133 3.105-13.542 6.815-3.912 4.221-6.019 10.036-5.418 16.256.701 7.023 4.816 12.943 10.528 16.252-.799 2.006-1.194 4.115-1.194 6.22 0 3.713 1.104 7.524 3.402 10.737 5.822 7.82 16.76 9.425 24.581 3.609 3.615-2.715 5.92-6.519 6.72-10.634.907-4.714 0-9.736-3.104-13.942-.702-1.005-1.506-1.907-2.414-2.711z" />
    <path fill="#56AEB7" d="M21.566 161.721c1.405-.908 2.51-2.109 3.513-3.518 3.311.305 6.822-.299 10.031-1.902 8.728-4.513 12.139-15.353 7.523-24.076-4.514-8.727-15.348-12.141-24.075-7.524-5.319 2.811-8.728 7.927-9.432 13.548-5.014 1.901-8.626 6.814-8.626 12.533 0 7.421 5.92 13.339 13.343 13.444-.5.3-1.003.596-1.506.998-7.825 5.822-9.429 16.761-3.61 24.584 5.817 7.821 16.751 9.43 24.577 3.615 7.824-5.822 9.431-16.761 3.612-24.584-3.813-5.015-9.63-7.418-15.35-7.118z" />
    <path fill="#fff" d="M41.731 135.432c-4.514-8.726-15.348-12.14-24.079-7.519-3.91 2.001-6.718 5.312-8.325 9.128-4.312 2.207-7.221 6.725-7.221 11.937 0 6.42 4.415 11.737 10.432 13.042-7.724 5.814-9.328 16.753-3.512 24.576 5.82 7.828 16.754 9.43 24.579 3.607 7.825-5.814 9.429-16.748 3.613-24.576-.201-.297-.402-.498-.604-.699 1.809-.902 3.41-2.207 4.514-4.115 1.606-2.806 1.808-6.116.704-8.927 2.506-5.018 2.707-11.132-.101-16.454z" />
  </g>
  <path id="flame-2" fill="#F39323" d="M61.894 100.486c2.509.506 7.124 4.013 7.926 8.829 1.003 5.022-1.805 11.338-7.726 21.574-.1.3-.301.496-.396.702-.101-.206-.201-.506-.402-.702-5.72-10.035-8.628-16.355-7.524-21.368.902-4.816 5.618-8.427 8.128-9.035" />
  <path id="flame-1" fill="#F9B03D" d="M61.894 100.486c1.706.402 5.018 2.815 5.518 6.22.704 3.517-1.302 8.029-5.417 15.149l-.297.505-.302-.505c-4.015-7.024-6.021-11.437-5.217-15.046.6-3.413 3.912-5.92 5.715-6.323" />
  <g id="cloud-1">
    <path fill="#fff" d="M98.011 165.129c-.805-4.414-3.114-8.524-6.621-11.737-8.025-7.119-19.863-7.023-27.79-.201 1.104 1.403 2.107 3.012 2.809 4.714-2.504-3.713-6.116-6.72-10.732-8.226-11.036-3.706-22.974 2.207-26.686 13.243-1.704 5.121-1.405 10.431.604 15.145 2.308 5.321 6.721 9.633 12.537 11.645 7.627 2.609 15.752.492 21.269-4.719 8.728 7.627 21.972 6.822 29.594-1.806 4.717-5.214 6.223-11.833 5.016-18.058z" />
    <path fill="#56AEB7" d="M28.99 162.922c3.712-11.036 15.649-16.949 26.686-13.243 4.516 1.506 8.229 4.513 10.732 8.226-.701-1.702-1.704-3.311-2.809-4.714 7.927-6.822 19.765-6.918 27.79.201 3.609 3.213 5.816 7.323 6.621 11.737 0-5.719-2.408-11.434-7.023-15.651-8.626-7.62-21.668-6.919-29.391 1.402-2.107-2.001-4.717-3.609-7.726-4.607-11.036-3.714-22.977 2.204-26.686 13.24-2.207 6.414-1.003 13.241 2.509 18.46-2.007-4.62-2.407-9.93-.703-15.051z" />
  </g>
  <g id="rocket">
    <path fill="#fff" d="M75.695 78.554c-2.003-33.611-13.944-47.956-13.944-47.956s-11.737 14.344-13.741 47.956c-1.204 20.162-.605 34.71-.605 34.71s2.509-4.012 12.14-3.311h4.816c9.528-.701 12.037 3.409 12.037 3.409s.501-14.646-.703-34.808z" />
    <path fill="#E94D37" d="M53.525 47.655c.701-.402 1.704-.805 2.908-1.104 1.506-.402 3.312-.699 5.317-.699h.101c3.512 0 6.521.896 8.228 1.803-3.914-11.735-8.328-17.155-8.328-17.155s-4.513 5.519-8.427 17.558l.201-.403z" />
    <path fill="#EDEDED" d="M61.751 30.598s-11.737 14.448-13.741 48.06c-1.204 20.162-.605 34.705-.605 34.705s2.509-3.909 12.14-3.208c-.1-.103-17.657-29.693 2.206-79.557z" />
    <path fill="#E2F2F5" d="M62.556 58.691c5.483 0 9.933 4.449 9.933 9.933 0 5.481-4.449 9.93-9.933 9.93-5.486 0-9.933-4.448-9.933-9.93 0-5.483 4.446-9.933 9.933-9.933z" />
    <path fill="#B3DEE6" d="M56.034 59.991l15.951 15.953-4.516 2.909-15.047-15.149-.402 1.506 13.746 13.746-1.104.805-13.444-13.449.502-1.908 4.314-4.413z" />
    <path fill="#576374" d="M62.556 58.691c5.518 0 9.933 4.414 9.933 9.933 0 5.516-4.415 9.93-9.933 9.93-5.519 0-9.933-4.414-9.933-9.93 0-5.519 4.414-9.933 9.933-9.933m0-2.01c-6.622 0-11.939 5.321-11.939 11.943 0 6.619 5.317 11.937 11.939 11.937 6.621 0 11.936-5.317 11.936-11.937-.001-6.622-5.416-11.943-11.936-11.943z" />
    <path fill="#DADADA" d="M61.852 45.853c-2.006 0-3.912.297-5.418.699-1.204.299-2.207.701-2.908 1.104l-.503 1.402c.704-.401 1.707-.902 3.012-1.206 1.604-.493 3.51-.8 5.717-.8h.101c3.813 0 7.124 1.104 8.63 2.109l-.503-1.4c-1.504-1.013-4.617-1.908-8.128-1.908z" />
    <path fill="#2D3C50" d="M61.652 106.643c-6.621 0-12.041 1.707-14.444 2.707v1.006c0 1.006 0 1.903.101 2.908 2.806-1.407 8.223-3.006 14.344-2.908h.199c6.121 0 11.64 1.604 14.445 3.007l.101-3.104v-.805c-2.403-1.001-7.922-2.811-14.546-2.811h-.2z" />
    <path fill="#E94D37" d="M61.751 81.762c-.5-.098 5.42 7.427 0 38.026-5.418-30.6.603-38.124 0-38.026" />
    <path fill="#E8AFAC" d="M61.751 88.59c-.299 0 3.112 4.206 0 21.564-3.01-17.358.402-21.564 0-21.564" />
    <path fill="#E94D37" d="M70.882 85.98l6.418 7.023s1.808 1.001 3.813 8.724c2.006 7.726 4.915 17.358 4.915 17.358l-17.053-11.737 1.907-21.368z" />
    <path fill="#E8AFAC" d="M70.882 85.98l6.418 7.023s1.808 1.001 3.813 8.724c2.006 7.726 4.915 17.358 4.915 17.358l-1.403-.909-7.023-20.056-7.021-8.029.301-4.111z" />
    <path fill="#A53428" d="M70.882 85.98l2.104 24.071-4.11-2.806 2.006-21.265z" />
    <path fill="#E94D37" d="M52.724 85.98l-6.421 7.023s-1.805 1.001-3.812 8.724c-2.006 7.726-4.914 17.358-4.914 17.358l17.052-11.737-1.905-21.368z" />
    <path fill="#E8AFAC" d="M52.724 85.98l-6.421 7.023s-1.805 1.001-3.812 8.724c-2.006 7.726-4.914 17.358-4.914 17.358l1.402-.909 7.024-20.057 7.019-8.029-.298-4.11z" />
    <path fill="#A53428" d="M52.724 85.98l-2.107 24.071 4.113-2.806-2.006-21.265z" />
  </g>
</svg>
