<svg xmlns="http://www.w3.org/2000/svg" width="87" height="40" viewBox="0 0 87 40"><path fill="#fff" d="M73.088 27.331l3.063-14.472h10.849l-.58 2.774h-6.886l-.641 3.014h6.485l-.601 2.774h-6.485l-.641 3.096h7.046l-.601 2.813-11.008.001zm-10.788-5.588h3.924l-.581-6.09h-.06l-3.283 6.09zm-7.106 5.588l8.768-14.511h4.885l2.643 14.511h-4.524l-.38-2.915h-5.786l-1.602 2.915h-4.004zm-6.789-11.839l-.74 3.559h1.5c.854 0 1.416-.042 1.683-.123.76-.227 1.228-.777 1.4-1.647.041-.187.061-.355.061-.503 0-.562-.267-.938-.801-1.125-.319-.107-.854-.161-1.602-.161h-1.501zm-6.526 11.839l3.062-14.511h6.687c1.147 0 1.907.027 2.282.08.908.134 1.555.456 1.942.965.36.456.541 1.024.541 1.708 0 .349-.041.718-.12 1.107-.268 1.245-.901 2.143-1.902 2.692-.654.362-1.441.61-2.362.744l-.02.08c1.041.027 1.748.236 2.122.624.319.321.48.864.48 1.628 0 .255-.02.689-.061 1.306-.12 1.795-.146 2.988-.079 3.577h-4.344c-.026-.537.046-1.629.22-3.277.054-.576.079-.97.079-1.185 0-.443-.109-.754-.329-.936-.219-.181-.651-.271-1.292-.271h-1.682l-1.201 5.668-4.023.001zm-9.349-6.09l-.72 3.437h2.222c1.375 0 2.182-.563 2.422-1.689.04-.174.061-.335.061-.482 0-.844-.628-1.265-1.882-1.265h-2.103zm1.222-5.789l-.682 3.215h1.882c.707 0 1.188-.059 1.441-.18.561-.282.908-.751 1.041-1.407.121-.562.027-.991-.28-1.286-.24-.229-.647-.342-1.221-.342h-2.181zm-6.407 11.879l3.062-14.511h5.786c1.228 0 2.115.047 2.662.141.921.174 1.622.522 2.102 1.045.44.482.661 1.066.661 1.749 0 .241-.027.489-.08.744-.36 1.674-1.622 2.774-3.784 3.296l-.019.04c1.88.349 2.822 1.247 2.822 2.693 0 .912-.253 1.738-.76 2.483-.507.743-1.185 1.315-2.032 1.719-.848.401-2.192.603-4.034.603h-6.386zm-13.192 0l3.062-14.472h10.85l-.58 2.774h-6.885l-.641 3.014h6.486l-.601 2.774h-6.486l-.64 3.096h7.046l-.6 2.813h-11.011v.001zm-14.013-4.623h4.023c-.052.268-.08.49-.08.663 0 1.059.68 1.587 2.042 1.587 1.428 0 2.262-.549 2.501-1.648.027-.134.042-.261.042-.382 0-.496-.334-.837-1.002-1.025l-3.343-.924c-1.896-.522-2.843-1.535-2.843-3.035 0-.294.033-.609.1-.945.28-1.286.981-2.337 2.102-3.155 1.268-.924 2.916-1.386 4.943-1.386 3.391 0 5.086 1.097 5.086 3.296 0 .362-.054.803-.16 1.326h-4.062c.067-.268.1-.497.1-.683 0-.884-.521-1.326-1.561-1.326-.574 0-1.068.144-1.481.431-.414.289-.661.653-.741 1.096-.027.12-.04.234-.04.341 0 .549.394.932 1.181 1.145l2.542.705c1.108.307 1.882.616 2.322.923.748.509 1.122 1.246 1.122 2.211 0 .322-.041.67-.121 1.046-.321 1.555-1.182 2.74-2.583 3.558-1.281.75-2.875 1.125-4.786 1.125-2.468 0-4.097-.576-4.884-1.729-.372-.536-.559-1.193-.559-1.969 0-.323.046-.738.14-1.246zM25.546 36.187h27.042l-.764 3.813h-27.042l.764-3.813zm1.369-6.333h27.042l-.766 3.812h-27.042l.766-3.812zM31.816 6.334h27.042l-.764 3.812h-27.042l.764-3.812zm1.369-6.334h27.041l-.764 3.812h-27.041l.764-3.812z"/></svg>